<?xml version="1.0" standalone="no"?>
<!DOCTYPE svg PUBLIC "-//W3C//DTD SVG 20010904//EN"
 "http://www.w3.org/TR/2001/REC-SVG-20010904/DTD/svg10.dtd">
<svg version="1.0" xmlns="http://www.w3.org/2000/svg"
 width="1250.000000pt" height="1773.000000pt" viewBox="0 0 1250.000000 1773.000000"
 preserveAspectRatio="xMidYMid meet">

<g transform="translate(0.000000,1773.000000) scale(0.100000,-0.100000)"
fill="#000000" stroke="none">
<path d="M3630 17581 c-476 -171 -604 -221 -659 -255 -41 -26 -41 -26 -36 -79
14 -158 14 -278 0 -699 -12 -355 -14 -505 -6 -637 l10 -174 -24 -29 c-38 -45
-46 -88 -55 -293 -7 -169 -11 -198 -34 -259 -14 -37 -26 -76 -26 -86 0 -10
-40 -50 -97 -96 -329 -264 -639 -671 -962 -1261 -83 -152 -112 -186 -196 -224
-85 -38 -183 -56 -429 -79 -237 -22 -293 -31 -383 -61 -60 -20 -66 -25 -145
-125 -92 -116 -144 -208 -175 -310 -47 -153 -42 -211 23 -288 288 -337 505
-765 584 -1155 24 -120 35 -219 51 -441 20 -285 -6 -384 -125 -481 -78 -63
-226 -144 -366 -200 -225 -90 -280 -130 -299 -219 -6 -28 -11 -61 -11 -74 0
-55 33 -204 70 -316 69 -211 167 -385 382 -681 58 -79 126 -176 153 -216 26
-39 54 -75 64 -78 37 -16 212 -16 343 -1 75 9 149 16 164 16 l27 0 -6 -63 c-4
-38 -24 -112 -52 -186 l-47 -124 166 -337 c90 -185 190 -392 221 -461 105
-231 114 -249 140 -284 15 -19 52 -51 83 -71 32 -20 86 -56 122 -80 43 -28 73
-57 88 -83 38 -67 52 -69 135 -20 40 23 153 97 252 164 99 68 211 142 250 165
l69 42 71 -73 c38 -41 118 -146 176 -234 59 -88 135 -194 168 -235 34 -41 67
-93 73 -115 12 -43 12 -405 0 -416 -4 -4 -50 -30 -102 -59 -280 -154 -376
-266 -387 -454 -9 -132 28 -245 130 -401 l46 -70 -78 -80 c-210 -216 -327
-520 -390 -1015 -26 -203 -38 -382 -51 -735 -5 -159 -15 -416 -20 -570 -26
-720 -32 -1053 -33 -1736 l-1 -736 33 -45 c18 -25 45 -54 60 -65 80 -60 197
-90 305 -79 l62 6 39 -41 c69 -71 72 -71 249 -49 219 28 293 47 358 92 l28 19
10 -28 c47 -128 79 -158 182 -167 41 -4 112 -20 159 -36 83 -27 84 -28 108 -9
27 22 102 25 163 9 30 -9 44 -8 68 5 18 9 79 25 138 36 125 24 140 31 224 104
34 30 77 60 95 66 18 5 35 19 38 29 3 11 24 35 46 54 l40 34 10 123 c17 200
-3 467 -62 824 -86 519 -105 689 -149 1340 -90 1323 -156 1738 -336 2124 -91
194 -250 390 -386 476 -27 17 -48 33 -48 36 0 4 16 33 35 65 72 120 100 230
92 369 -9 156 -67 288 -173 389 -52 50 -157 109 -224 126 l-45 11 -18 111 c-9
61 -15 113 -14 115 4 3 298 -115 306 -123 2 -2 -3 -12 -12 -22 -22 -24 -13
-32 37 -32 87 1 156 55 226 180 28 49 322 506 333 517 2 1 44 -2 93 -8 108
-12 85 10 352 -338 227 -297 407 -523 464 -585 l43 -46 240 55 c132 31 250 58
261 60 21 5 22 13 29 127 3 68 9 220 13 337 l7 215 123 -118 c67 -65 166 -173
220 -239 117 -145 155 -178 215 -184 41 -5 60 3 258 104 l214 110 7 134 c8
168 39 323 127 648 38 141 75 281 82 311 14 53 17 56 124 138 61 46 214 153
342 239 l232 155 73 -43 c40 -23 159 -95 263 -159 105 -64 225 -136 267 -159
l78 -43 57 36 c132 80 266 214 327 327 26 46 27 52 12 67 -44 50 -85 182 -146
473 -22 108 -51 230 -64 271 l-23 76 53 66 c29 37 92 133 140 214 154 261 225
341 364 411 100 50 204 74 463 106 l209 26 34 -31 c19 -16 39 -30 45 -30 25 0
157 239 198 359 19 56 51 187 51 211 0 4 -24 25 -52 46 -122 87 -253 236 -362
414 l-54 87 33 84 c35 87 69 237 105 468 38 236 88 372 184 496 26 32 172 192
326 355 154 163 293 314 310 336 37 48 39 100 11 266 -11 62 -25 164 -32 226
l-12 112 -128 0 c-162 0 -161 0 -145 53 51 163 227 504 384 746 70 107 88 165
102 337 6 76 16 158 21 182 9 41 7 46 -60 165 -38 67 -82 146 -97 176 -27 51
-38 60 -189 154 -433 270 -1933 1222 -2079 1320 -146 98 -204 121 -318 125
l-98 4 -115 223 c-63 123 -123 232 -133 243 -35 41 -274 97 -775 181 -197 34
-418 74 -490 91 l-132 31 -39 -43 c-21 -24 -64 -81 -94 -127 l-55 -85 -131
136 c-129 134 -161 158 -191 141 -13 -7 -10 -19 19 -80 44 -92 127 -179 369
-389 103 -90 213 -192 243 -228 81 -95 155 -123 162 -62 3 26 -18 50 -204 231
l-208 202 84 92 c65 71 89 91 105 87 35 -9 252 -44 495 -81 304 -46 499 -86
646 -133 l119 -38 97 -169 c54 -94 102 -182 107 -197 l10 -28 -67 0 c-77 0
-115 -18 -110 -53 5 -38 44 -48 142 -35 109 14 209 1 339 -42 118 -40 231 -99
548 -289 192 -114 296 -184 415 -278 188 -149 226 -174 545 -374 823 -514
1000 -682 1016 -969 9 -154 -36 -289 -160 -481 -29 -46 -98 -169 -152 -274
-251 -487 -391 -688 -529 -755 -71 -35 -553 -153 -686 -169 -160 -18 -355 -23
-540 -12 -165 10 -493 42 -592 57 l-37 6 34 96 c66 190 158 365 351 669 59 93
135 207 170 254 120 162 133 218 94 417 -11 56 -20 123 -20 148 0 40 -6 54
-49 108 -63 79 -233 243 -340 328 -45 36 -187 142 -315 234 -289 210 -350 258
-456 359 -115 110 -150 127 -150 72 0 -37 33 -79 137 -175 122 -113 227 -194
443 -342 214 -146 333 -241 450 -359 141 -143 190 -248 190 -412 0 -100 -10
-160 -47 -272 -39 -123 -108 -245 -290 -523 -164 -248 -262 -417 -299 -514 -9
-25 -20 -48 -24 -53 -9 -10 -287 43 -505 97 -252 62 -531 150 -870 273 -1147
415 -1841 758 -2423 1197 -180 136 -460 375 -544 464 -94 99 -102 118 -95 216
13 213 200 569 407 777 105 106 165 153 285 222 326 189 726 238 1330 161 66
-8 284 -41 485 -74 201 -32 403 -64 449 -70 64 -9 94 -18 125 -39 124 -85 264
-131 399 -131 127 0 169 13 196 60 47 85 12 212 -77 274 -56 38 -123 45 -447
46 -365 0 -511 14 -1205 115 -400 57 -527 69 -680 62 -349 -18 -707 -180 -984
-447 -222 -215 -363 -456 -441 -754 -14 -55 -27 -101 -29 -103 -12 -12 -386
394 -437 475 -18 27 -18 34 -5 93 20 88 25 198 36 774 6 275 13 547 17 604 l6
104 72 33 c238 110 577 164 935 150 215 -9 381 -26 855 -86 447 -57 545 -67
781 -80 179 -9 237 -3 248 26 27 70 -327 118 -1159 159 -592 30 -961 76 -994
124 -7 12 -19 21 -25 20 -6 0 -72 -22 -146 -48z m3375 -1288 c80 -25 139 -59
178 -102 46 -51 48 -75 5 -90 -93 -33 -215 -18 -326 38 -86 44 -126 82 -118
109 21 65 134 84 261 45z m-3126 -2503 c61 -73 92 -123 257 -411 86 -151 175
-302 196 -337 l40 -62 -154 -163 c-386 -405 -537 -591 -698 -858 l-48 -80 -6
83 c-3 46 -7 364 -8 708 l-3 625 28 45 c15 25 52 76 82 115 62 79 97 166 119
296 12 68 21 92 43 116 l28 31 44 -32 c24 -17 60 -51 80 -76z m6824 -730 c23
-92 27 -239 9 -301 -18 -61 -69 -121 -225 -263 -140 -129 -201 -200 -302 -351
-84 -125 -208 -378 -274 -555 -43 -117 -71 -209 -183 -590 -33 -115 -13 -168
122 -315 88 -96 224 -265 286 -356 l45 -66 -26 -94 c-55 -196 -83 -214 -375
-244 -85 -9 -229 -29 -320 -45 -91 -16 -188 -32 -217 -36 -51 -6 -54 -9 -111
-83 -32 -42 -141 -193 -242 -336 -101 -143 -198 -279 -215 -302 l-32 -42 58
-211 c75 -271 149 -599 149 -656 0 -58 -29 -114 -97 -185 -88 -93 -139 -107
-228 -65 -27 12 -151 91 -275 173 -124 83 -250 164 -281 182 l-56 31 -69 -57
c-181 -148 -403 -302 -531 -367 -116 -58 -155 -100 -207 -224 -39 -92 -71
-228 -126 -531 -55 -298 -75 -386 -118 -499 -24 -65 -32 -76 -66 -94 -52 -27
-167 -70 -173 -65 -19 20 -30 1441 -13 1772 15 295 15 294 58 312 248 101 516
258 747 438 236 184 641 569 816 776 201 236 361 496 438 712 76 212 81 218
305 447 326 332 523 582 723 915 152 254 210 385 249 560 41 184 100 287 284
500 52 61 107 125 122 143 24 28 34 32 105 41 43 5 112 8 153 7 l75 -1 18 -75z
m-7470 -137 c2 -104 10 -264 18 -357 21 -278 -8 -617 -86 -986 -25 -119 -43
-189 -184 -740 -87 -340 -111 -468 -111 -589 l0 -101 42 0 c25 0 104 21 191
51 82 28 150 49 152 47 2 -2 5 -140 7 -307 l3 -304 -85 -34 c-47 -19 -139 -54
-205 -79 -119 -43 -175 -82 -175 -118 0 -8 20 -38 45 -67 30 -35 64 -97 106
-193 129 -295 203 -415 292 -472 l44 -29 6 -141 c4 -77 10 -315 14 -527 7
-447 16 -418 -98 -347 -99 63 -167 93 -194 86 -13 -3 -40 -28 -60 -55 -46 -64
-133 -129 -369 -276 -105 -66 -218 -140 -252 -166 l-62 -48 -86 85 c-48 47
-98 103 -112 123 l-25 38 22 54 c11 30 77 200 145 378 l124 324 -124 166
c-187 252 -221 309 -276 456 -25 67 -27 70 -75 89 -78 30 -252 32 -471 7 -206
-24 -322 -27 -347 -8 -25 18 -86 158 -109 250 -22 89 -21 192 4 244 11 23 74
59 338 193 384 195 460 237 460 253 0 33 32 408 45 527 28 251 72 479 121 622
l25 73 -85 81 c-85 80 -221 197 -370 316 -43 35 -93 83 -110 107 -29 40 -31
48 -30 130 0 96 17 147 91 276 l40 70 79 6 c44 4 283 10 532 14 l452 8 67 126
c177 337 302 546 413 692 75 98 199 239 210 239 4 0 10 -84 13 -187z m1323
-231 c222 -301 296 -405 388 -542 53 -79 94 -145 91 -148 -8 -8 -1557 -542
-1571 -542 -10 0 -2 93 12 141 24 81 54 134 185 331 179 270 314 441 494 627
92 96 283 271 295 271 3 -1 51 -62 106 -138z m3570 -82 c26 -10 27 -12 22 -78
-8 -109 -66 -204 -151 -247 -56 -27 -96 -31 -148 -14 -58 20 -64 30 -51 93 23
113 88 208 166 242 37 16 124 18 162 4z m-933 -559 c54 -11 100 -21 102 -23 2
-1 1 -301 -2 -665 -6 -598 -8 -663 -22 -662 -9 0 -52 11 -96 23 l-80 22 -3
662 c-1 364 -1 662 0 662 2 0 47 -9 101 -19z m1081 -148 l69 -6 -7 -166 c-4
-91 -11 -354 -16 -585 -5 -230 -11 -421 -14 -423 -9 -9 -307 -55 -313 -49 -4
3 -1 183 5 399 7 215 15 495 19 621 l6 229 91 -7 c50 -4 122 -10 160 -13z
m-2333 -759 c28 -14 126 -82 217 -152 92 -69 189 -139 217 -154 l50 -27 -38
-16 c-97 -40 -819 -312 -1597 -600 -470 -175 -954 -355 -1074 -401 -120 -47
-222 -82 -225 -78 -8 8 -3 386 7 528 l7 110 240 84 c132 46 591 205 1020 352
429 148 850 293 935 323 85 31 163 56 173 56 10 1 40 -11 68 -25z m929 -514
c63 -6 163 -19 222 -30 109 -21 307 -76 321 -89 10 -10 -77 -153 -155 -253
-74 -93 -252 -270 -344 -340 -245 -188 -580 -354 -976 -486 l-136 -45 4 -91
c2 -50 6 -214 8 -363 4 -214 2 -273 -8 -273 -7 0 -73 60 -147 133 -74 72 -183
176 -242 231 l-107 99 -79 -36 c-190 -87 -384 -122 -681 -121 -301 1 -548 39
-808 126 -109 36 -131 47 -188 96 l-64 56 0 148 c0 110 3 150 13 152 6 2 104
34 217 70 264 85 451 161 988 400 563 250 668 294 927 387 366 132 812 231
1070 238 28 0 102 -4 165 -9z m-2995 -2308 c197 -71 456 -130 725 -164 162
-20 643 -17 795 5 136 20 299 56 395 86 35 11 65 19 66 18 1 -1 3 -438 5 -972
l4 -970 -70 -23 c-76 -24 -262 -65 -277 -60 -8 3 -213 537 -302 790 -34 96
-41 108 -70 119 -21 9 -105 13 -261 14 -240 1 -258 4 -349 50 -55 28 -69 30
-114 14 -35 -12 -66 -57 -76 -108 -6 -34 -132 -259 -210 -376 -22 -33 -70 -91
-108 -129 -78 -78 -76 -78 -208 -27 l-75 28 -7 134 c-3 74 -11 258 -18 409 -8
207 -14 278 -24 289 -8 7 -38 19 -68 25 l-53 12 -7 50 c-3 27 -11 198 -17 379
-6 182 -14 383 -17 448 l-7 117 119 -59 c66 -32 169 -77 229 -99z m-566 -6057
c6 -291 16 -617 21 -724 11 -186 10 -195 -8 -215 -11 -11 -30 -41 -42 -65 -18
-35 -24 -41 -31 -29 -14 26 -29 232 -29 414 0 167 1 172 23 186 l22 15 3 504
c1 277 5 524 9 549 7 44 7 44 14 -30 4 -41 12 -313 18 -605z m557 471 c8 -103
32 -372 53 -599 61 -624 65 -704 66 -1077 0 -335 -9 -544 -24 -569 -10 -16
-88 14 -101 40 -6 10 -10 46 -10 81 -1 35 -7 144 -15 243 -30 374 -40 944 -26
1455 14 540 19 636 33 622 6 -6 16 -94 24 -196z m327 -867 c8 -146 31 -397 67
-744 11 -104 25 -301 30 -437 11 -267 7 -302 -34 -296 -19 3 -21 11 -23 68 -2
36 -10 204 -18 375 -8 171 -22 477 -30 680 -8 204 -18 401 -21 439 -6 56 -4
68 7 64 11 -3 16 -40 22 -149z"/>
<path d="M3475 17202 c-81 -43 -177 -108 -222 -150 -30 -28 -31 -31 -21 -73
14 -62 3 -189 -32 -374 -28 -147 -42 -316 -27 -331 12 -12 67 19 72 40 11 44
45 298 65 481 l20 190 46 42 c61 57 144 96 213 101 46 3 82 -5 199 -42 151
-49 229 -58 252 -31 20 24 -2 41 -88 69 -67 22 -397 116 -404 116 -2 0 -34
-17 -73 -38z"/>
<path d="M3400 16836 c0 -3 -21 -134 -46 -293 -27 -165 -45 -314 -44 -348 5
-123 0 -184 -26 -347 -31 -191 -28 -218 25 -218 29 0 30 2 36 58 25 219 58
362 165 707 61 197 120 412 120 438 0 4 -52 7 -115 7 -63 0 -115 -2 -115 -4z"/>
<path d="M5225 15976 c-28 -19 -90 -69 -140 -111 -161 -137 -255 -185 -389
-201 l-52 -6 -18 -227 c-10 -124 -20 -241 -23 -258 -6 -33 -5 -33 35 -33 24 0
42 5 45 14 3 7 11 67 17 132 6 65 15 143 18 173 l7 55 211 155 c117 86 250
187 297 226 81 67 84 71 69 92 -8 13 -17 23 -21 23 -3 0 -29 -15 -56 -34z"/>
<path d="M4846 15478 c-3 -24 -33 -302 -66 -618 -33 -316 -62 -592 -66 -612
-5 -36 -4 -38 19 -38 41 0 77 18 86 42 5 13 18 122 30 243 33 334 30 316 55
309 21 -5 26 6 79 183 62 203 129 455 123 461 -3 2 -244 71 -252 72 -1 0 -4
-19 -8 -42z"/>
<path d="M10620 14381 c-29 -8 -31 -11 -114 -201 -35 -80 -121 -269 -191 -420
-182 -394 -186 -408 -129 -461 l25 -23 24 29 c40 49 72 116 124 253 68 180 74
190 113 194 29 3 37 10 62 58 16 30 70 127 121 215 139 241 169 303 153 322
-30 37 -120 53 -188 34z"/>
</g>
</svg>
